<?xml version="1.0" standalone="no"?><!DOCTYPE svg PUBLIC "-//W3C//DTD SVG 1.1//EN" "http://www.w3.org/Graphics/SVG/1.1/DTD/svg11.dtd"><svg class="icon" width="16px" height="16.00px" viewBox="0 0 1024 1024" version="1.1" xmlns="http://www.w3.org/2000/svg"><path d="M691.2 641.7408V511.488a40.0128 40.0128 0 1 0-80.0512 0v112.4352H80.0512V92.8512h531.0976V202.752a40.0128 40.0128 0 1 0 80.0512 0V75.0592A62.3104 62.3104 0 0 0 628.9408 12.8H62.2592A62.3104 62.3104 0 0 0 0 75.0592v566.6816A62.3104 62.3104 0 0 0 62.2592 704h566.6816A62.3104 62.3104 0 0 0 691.2 641.7408z" fill="#467CFD" /><path d="M961.7408 320H395.0592A62.3104 62.3104 0 0 0 332.8 382.2848v131.2256a40.0128 40.0128 0 1 0 80.0512 0v-113.4336h531.0976v531.1488H412.8512V816.896a40.0128 40.0128 0 1 0-80.0512 0v132.0192a62.3104 62.3104 0 0 0 62.2592 62.2848h566.6816A62.3104 62.3104 0 0 0 1024 948.9152V382.2848a62.3104 62.3104 0 0 0-62.2592-62.2848z" fill="#467CFD" /></svg>