<?xml version="1.0" standalone="no"?><!DOCTYPE svg PUBLIC "-//W3C//DTD SVG 1.1//EN"
        "http://www.w3.org/Graphics/SVG/1.1/DTD/svg11.dtd">
<svg class="icon" width="16px" height="16.00px" viewBox="0 0 1024 1024" version="1.1"
     xmlns="http://www.w3.org/2000/svg">
    <path d="M781.653333 320.853333H665.6c-29.013333 0-51.2 23.893333-51.2 51.2 0 29.013333 23.893333 51.2 51.2 51.2h116.053333c49.493333 0 90.453333 40.96 90.453334 90.453334s-40.96 90.453333-90.453334 90.453333H665.6c-29.013333 0-51.2 23.893333-51.2 51.2s23.893333 51.2 51.2 51.2h116.053333c107.52 0 194.56-87.04 194.56-194.56s-87.04-191.146667-194.56-191.146667zM252.586667 424.96h129.706666c29.013333 0 51.2-23.893333 51.2-51.2 0-29.013333-23.893333-51.2-51.2-51.2h-129.706666C145.066667 322.56 58.026667 409.6 58.026667 517.12s87.04 194.56 194.56 194.56h129.706666c29.013333 0 51.2-23.893333 51.2-51.2s-23.893333-51.2-51.2-51.2h-129.706666c-49.493333 0-90.453333-40.96-90.453334-90.453333s40.96-93.866667 90.453334-93.866667zM380.586667 764.586667c-22.186667-17.066667-54.613333-11.946667-73.386667 10.24l-73.386667 97.28c-17.066667 22.186667-11.946667 54.613333 10.24 73.386666 8.533333 6.826667 20.48 10.24 30.72 10.24 15.36 0 30.72-6.826667 40.96-20.48l73.386667-97.28c18.773333-22.186667 13.653333-54.613333-8.533333-73.386666zM517.12 740.693333c-29.013333 0-51.2 23.893333-51.2 51.2v124.586667c0 29.013333 23.893333 51.2 51.2 51.2 29.013333 0 51.2-23.893333 51.2-51.2v-124.586667c1.706667-27.306667-22.186667-51.2-51.2-51.2zM727.04 776.533333c-17.066667-22.186667-49.493333-27.306667-73.386667-10.24-22.186667 17.066667-27.306667 49.493333-10.24 73.386667l73.386667 97.28c10.24 13.653333 25.6 20.48 40.96 20.48 10.24 0 22.186667-3.413333 30.72-10.24 22.186667-17.066667 27.306667-49.493333 10.24-73.386667l-71.68-97.28zM517.12 276.48c29.013333 0 51.2-23.893333 51.2-51.2V78.506667c0-29.013333-23.893333-51.2-51.2-51.2s-51.2 23.893333-51.2 51.2v145.066666c-1.706667 29.013333 22.186667 52.906667 51.2 52.906667zM307.2 252.586667c10.24 15.36 25.6 22.186667 42.666667 22.186666 10.24 0 20.48-3.413333 29.013333-8.533333 23.893333-15.36 30.72-47.786667 13.653333-71.68l-73.386666-107.52c-15.36-23.893333-47.786667-30.72-71.68-13.653333-23.893333 15.36-30.72 47.786667-13.653334 71.68l73.386667 107.52zM655.36 266.24c8.533333 6.826667 18.773333 8.533333 29.013333 8.533333 17.066667 0 32.426667-8.533333 42.666667-22.186666l73.386667-107.52c15.36-23.893333 10.24-56.32-13.653334-71.68-23.893333-15.36-56.32-10.24-71.68 13.653333l-73.386666 107.52c-15.36 23.893333-10.24 56.32 13.653333 71.68z"
          fill="#467CFD"/>
</svg>